<?xml version="1.0" encoding="UTF-8"?>
<svg id="Camada_1" data-name="Camada 1" xmlns="http://www.w3.org/2000/svg" viewBox="0 0 1352.61 260.13">
  <defs>
    <style>
      .cls-1 {
        fill: #fff;
      }
    </style>
  </defs>
  <path class="cls-1" d="M1271.87,175.12c0,3.59-2.47,5.42-5.5,5.42s-5.58-1.83-5.58-5.42c0-3.35,2.47-5.26,5.58-5.26s5.5,1.83,5.5,5.26ZM1303,120.44v90.08c0,2.02-1.64,3.65-3.65,3.65h-121.55v-97.38h121.55c2.02,0,3.65,1.64,3.65,3.65ZM1237.37,179.02h-19.6v-.8c10.28-6.45,19.12-12.27,19.12-23.34,0-12.75-9.08-18.48-21.83-18.48-15.06,0-22.78,8.37-22.78,19.52v3.98h17.45v-3.74c0-2.79,1.83-4.7,4.78-4.7,2.79,0,4.78,1.91,4.78,4.46,0,7.17-11.23,14.18-25.33,23.1v14.34h43.42v-14.34ZM1288.52,174.64c0-11.39-5.81-17.45-15.69-17.45-5.42,0-10.76,1.91-12.83,5.1h-.88c0-7.57,3.19-10.36,11.87-10.36h13.3v-14.34h-12.35c-16.89,0-29.79,4.7-29.79,28.52,0,20.63,7.01,28.44,24.22,28.44,13.94,0,22.15-6.13,22.15-19.92ZM108.1,165.32c4.59,0,8.32-3.73,8.32-8.32v-62.65c0-4.59-3.73-8.32-8.32-8.32s-8.32,3.73-8.32,8.32v62.65c0,4.59,3.73,8.32,8.32,8.32ZM149.4,155.67c0,22.77-18.53,41.3-41.3,41.3s-41.3-18.53-41.3-41.3v-31.6c0-4.75-3.85-8.6-8.6-8.6s-8.6,3.85-8.6,8.6v31.6c0,32.26,26.24,58.5,58.49,58.5s58.51-26.24,58.51-58.5v-34.3h-17.2v34.3ZM108.1,189.27c18.5,0,33.55-15.05,33.55-33.55v-49.55c0-.06-.02-.11-.02-.17h-17.17c0,.06-.01.11-.01.17v49.55c0,9.01-7.33,16.35-16.35,16.35s-16.34-7.33-16.34-16.35V45.96h-17.2v109.77c0,18.5,15.05,33.55,33.55,33.55ZM318.21,119.49l-37.14,87.29h19.44l7.93-19.44h16.01s9.67,0,9.67,0l-9.53-16.71v-.13h-.08l-.06-.1v.1h-9.2l11.52-28.11,11.51,28.11,6.81,16.84,7.92,19.44h19.94l-37.14-87.29h-17.58ZM524.1,119.49l-37.14,87.29h19.44l7.93-19.44h16.1s9.67,0,9.67,0l-9.67-16.94v.1h-9.29l11.52-28.11,11.51,28.11,6.81,16.84,7.92,19.44h19.94l-37.14-87.29h-17.58ZM467.24,148.96v-.25c0-8.17-2.6-14.98-7.43-19.81-5.7-5.69-14.24-8.79-25.26-8.79h-39.62v86.67h19.07v-69.46h18.94c9.28,0,14.98,4.21,14.98,12.38v.25c0,7.31-5.33,12.26-14.61,12.26h-13.79l28.03,44.57h22.29l-21.17-30.95c11.02-4.09,18.57-12.88,18.57-26.87ZM670.17,148.96v-.25c0-8.17-2.6-14.98-7.43-19.81-5.69-5.69-14.24-8.79-25.26-8.79h-39.62v86.67h19.07v-69.46h18.94c9.29,0,14.98,4.21,14.98,12.38v.25c0,7.3-5.32,12.26-14.6,12.26h-13.8l28.03,44.57h22.29l-21.17-30.96c11.02-4.08,18.57-12.88,18.57-26.86ZM242.44,120.11h-35.41v86.67h19.07v-26h.13v-16.96h-.13v-26.5h14.73c9.54,0,15.48,4.59,15.48,13.13v.25c0,7.43-5.57,13.12-15.11,13.12h-14.07l9.53,16.96h3.93c19.44,0,35.04-10.4,35.04-30.46v-.25c0-17.7-12.51-29.96-33.18-29.96ZM716.02,116.79h451.81v97.38h-451.81c-1.89,0-3.43-1.53-3.43-3.43v-90.53c0-1.89,1.53-3.43,3.43-3.43ZM1099.45,146.34h17.49v51.18h15.2v-51.18h17.4v-12.91h-50.09v12.91ZM1078.67,197.52h14.28v-64.09h-14.28v64.09ZM972.92,197.52h15.11l5.59-46.61c.12-.97.45-1.86,1-2.66.79-1.13,1.89-1.96,3.3-2.47,1.64-.37,3.02-.18,4.12.55.73.49,1.3,1.13,1.69,1.92.39.79.53,1.68.41,2.66l-3.36,28.02c-.48,3.97.01,7.42,1.46,10.35,1.45,2.93,3.62,5.22,6.5,6.87,2.88,1.65,6.16,2.47,9.82,2.47s7.3-.82,10.55-2.47c3.25-1.65,5.97-3.94,8.15-6.87,2.18-2.93,3.51-6.38,3.99-10.35l3.37-28.11c.12-.98.46-1.85,1.05-2.61.58-.76,1.31-1.39,2.19-1.88.88-.49,1.81-.73,2.79-.73.92,0,1.74.25,2.48.73.73.49,1.29,1.11,1.65,1.88.37.76.49,1.63.37,2.61l-5.6,46.7h15.02l5.45-45.41c.46-3.85-.02-7.25-1.43-10.21-1.42-2.96-3.55-5.29-6.39-7-2.85-1.71-6.16-2.56-9.95-2.56s-7.5.86-10.79,2.56c-3.29,1.71-5.99,4.04-8.12,7-2.13,2.96-3.42,6.36-3.88,10.21l-3.34,27.83c-.12.98-.47,1.88-1.06,2.7-.59.82-1.31,1.47-2.15,1.92-.85.46-1.76.69-2.74.69-.92,0-1.74-.23-2.48-.69-.74-.46-1.29-1.1-1.65-1.92-.36-.82-.48-1.72-.36-2.7l3.34-27.83c.46-3.85-.02-7.25-1.43-10.21-1.42-2.96-3.56-5.29-6.44-7-2.88-1.71-6.24-2.56-10.09-2.56s-7.41.86-10.7,2.56c-3.29,1.71-5.99,4.04-8.12,7-2.13,2.96-3.42,6.36-3.88,10.21l-5.44,45.41ZM871.47,197.52h15.11l5.59-46.61c.12-.97.45-1.86,1.01-2.66.79-1.13,1.89-1.96,3.3-2.47,1.64-.37,3.02-.18,4.12.55.73.49,1.3,1.13,1.69,1.92.39.79.53,1.68.41,2.66l-3.36,28.02c-.48,3.97.01,7.42,1.46,10.35,1.45,2.93,3.62,5.22,6.5,6.87,2.88,1.65,6.16,2.47,9.82,2.47s7.3-.82,10.55-2.47c3.25-1.65,5.97-3.94,8.15-6.87,2.18-2.93,3.51-6.38,3.99-10.35l3.37-28.11c.12-.98.46-1.85,1.05-2.61.58-.76,1.31-1.39,2.19-1.88.88-.49,1.81-.73,2.79-.73.92,0,1.74.25,2.48.73.73.49,1.29,1.11,1.65,1.88.37.76.49,1.63.37,2.61l-5.6,46.7h15.02l5.45-45.41c.46-3.85-.02-7.25-1.43-10.21-1.42-2.96-3.55-5.29-6.39-7-2.85-1.71-6.16-2.56-9.95-2.56s-7.5.86-10.79,2.56c-3.29,1.71-5.99,4.04-8.12,7-2.13,2.96-3.42,6.36-3.88,10.21l-3.34,27.83c-.12.98-.47,1.88-1.06,2.7-.59.82-1.31,1.47-2.15,1.92-.85.46-1.76.69-2.74.69-.92,0-1.74-.23-2.48-.69-.74-.46-1.29-1.1-1.65-1.92-.36-.82-.48-1.72-.36-2.7l3.34-27.83c.46-3.85-.02-7.25-1.43-10.21-1.42-2.96-3.56-5.29-6.44-7-2.88-1.71-6.24-2.56-10.08-2.56s-7.41.86-10.7,2.56c-3.29,1.71-5.99,4.04-8.12,7-2.13,2.96-3.42,6.36-3.88,10.21l-5.44,45.41ZM810.67,172.07c0,5.49,1.17,10.23,3.52,14.19,2.35,3.97,5.57,7.02,9.66,9.16,4.09,2.14,8.79,3.2,14.1,3.2s10.01-1.07,14.1-3.2c4.09-2.14,7.29-5.19,9.61-9.16,2.32-3.97,3.48-8.7,3.48-14.19v-38.64h-15.11v39.56c0,2.32-.5,4.44-1.51,6.36-1.01,1.92-2.41,3.45-4.21,4.58-1.8,1.13-3.92,1.69-6.36,1.69s-4.58-.56-6.41-1.69c-1.83-1.13-3.25-2.66-4.26-4.58-1.01-1.92-1.51-4.04-1.51-6.36v-39.56h-15.11v38.64ZM750.88,152.75c0,3.97.92,7.37,2.75,10.21,1.83,2.84,4.26,4.99,7.28,6.46,3.02,1.47,6.39,2.2,10.12,2.2h9.89c1.22,0,2.3.31,3.25.92.95.61,1.71,1.4,2.29,2.38.58.98.87,2.08.87,3.3s-.27,2.23-.82,3.2c-.55.98-1.31,1.76-2.29,2.33-.98.58-2.08.87-3.3.87h-27.38v12.91h29.58c3.54,0,6.78-.79,9.71-2.38,2.93-1.59,5.25-3.94,6.96-7.05,1.71-3.11,2.56-6.84,2.56-11.17,0-3.79-.82-7.08-2.47-9.89-1.65-2.81-3.98-4.99-7-6.55-3.02-1.56-6.58-2.33-10.67-2.33h-10.35c-1.1,0-2.11-.26-3.02-.78-.92-.52-1.62-1.22-2.11-2.11-.49-.88-.73-1.91-.73-3.07,0-1.04.24-2.01.73-2.93.49-.92,1.19-1.63,2.11-2.15.92-.52,1.92-.78,3.02-.78h26.46v-12.91h-28.29c-3.54,0-6.76.79-9.66,2.38-2.9,1.59-5.21,3.83-6.91,6.73-1.71,2.9-2.56,6.3-2.56,10.21Z"/>
</svg>